<svg width="104" height="104" viewBox="0 0 104 104" fill="none" xmlns="http://www.w3.org/2000/svg">
<rect width="104" height="104" fill="white"/>
<rect x="1" y="1" width="102" height="102" stroke="#718096" stroke-width="2"/>
<path d="M21.1619 77.9911C20.7876 76.5483 19.6587 75.6065 17.6545 75.6065C15.5597 75.6065 14.0746 76.7113 14.0746 78.3533C14.0746 79.6694 14.8714 80.5447 16.6101 80.9311L18.1797 81.2752C19.0732 81.4744 19.4897 81.8729 19.4897 82.4524C19.4897 83.1708 18.723 83.7322 17.5398 83.7322C16.4592 83.7322 15.7649 83.2674 15.5476 82.3558L13.8029 82.6214C14.1048 84.2635 15.4691 85.1871 17.5518 85.1871C19.7915 85.1871 21.343 83.9979 21.343 82.3196C21.343 81.0096 20.5099 80.2006 18.8075 79.8082L17.3345 79.4702C16.3143 79.2287 15.8736 78.8846 15.8796 78.2567C15.8736 77.5444 16.6463 77.0373 17.6726 77.0373C18.7955 77.0373 19.3146 77.6591 19.5259 78.2809L21.1619 77.9911ZM27.6562 75.7273H25.7545V73.5057H23.9495V75.7273H22.5912V77.1761H23.9495V82.6516C23.9434 84.3359 25.2293 85.1509 26.654 85.1207C27.2275 85.1147 27.6139 85.006 27.8252 84.9276L27.4992 83.4364C27.3785 83.4606 27.1551 83.5149 26.8653 83.5149C26.2797 83.5149 25.7545 83.3217 25.7545 82.2773V77.1761H27.6562V75.7273ZM30.7939 88.4531C32.285 88.4531 33.2328 87.6744 33.764 86.2376L37.5975 75.7454L35.6475 75.7273L33.2992 82.9233H33.2026L30.8542 75.7273H28.9224L32.3152 85.1207L32.0918 85.7365C31.633 86.9379 30.987 87.0465 29.997 86.7749L29.5623 88.2539C29.7797 88.3565 30.2505 88.4531 30.7939 88.4531ZM41.1034 72.6364H39.2984V85H41.1034V72.6364ZM47.5282 85.1871C49.5506 85.1871 50.9814 84.1911 51.3919 82.6818L49.6834 82.3739C49.3574 83.2493 48.5726 83.696 47.5463 83.696C46.0009 83.696 44.9625 82.6939 44.9142 80.907H51.5066V80.267C51.5066 76.9165 49.5023 75.6065 47.4015 75.6065C44.8176 75.6065 43.1152 77.5746 43.1152 80.424C43.1152 83.3036 44.7935 85.1871 47.5282 85.1871ZM44.9203 79.5547C44.9927 78.2386 45.9466 77.0977 47.4135 77.0977C48.8141 77.0977 49.7317 78.136 49.7377 79.5547H44.9203ZM55.503 85H57.3382L59.2218 78.305H59.3606L61.2441 85H63.0854L65.8081 75.7273H63.9426L62.1376 82.5067H62.0471L60.236 75.7273H58.3706L56.5474 82.5369H56.4569L54.6397 75.7273H52.7743L55.503 85ZM67.521 85H69.3261V75.7273H67.521V85ZM68.4326 74.2965C69.0544 74.2965 69.5736 73.8136 69.5736 73.2219C69.5736 72.6303 69.0544 72.1413 68.4326 72.1413C67.8048 72.1413 67.2916 72.6303 67.2916 73.2219C67.2916 73.8136 67.8048 74.2965 68.4326 74.2965ZM73.5595 79.4943C73.5595 78.0153 74.465 77.1701 75.7207 77.1701C76.9462 77.1701 77.6887 77.973 77.6887 79.3192V85H79.4938V79.1019C79.4938 76.8079 78.2321 75.6065 76.3365 75.6065C74.9419 75.6065 74.0304 76.2525 73.6017 77.2365H73.487V75.7273H71.7544V85H73.5595V79.4943ZM85.3858 85.1811C87.0762 85.1811 87.7402 84.1488 88.0662 83.5572H88.2172V85H89.9799V72.6364H88.1749V77.2305H88.0662C87.7402 76.657 87.1245 75.6065 85.3979 75.6065C83.1582 75.6065 81.5101 77.3754 81.5101 80.3817C81.5101 83.3821 83.1341 85.1811 85.3858 85.1811ZM85.7843 83.6417C84.1724 83.6417 83.3333 82.223 83.3333 80.3636C83.3333 78.5224 84.1543 77.1399 85.7843 77.1399C87.3599 77.1399 88.2051 78.4258 88.2051 80.3636C88.2051 82.3136 87.3418 83.6417 85.7843 83.6417Z" fill="#718096"/>
<path fill-rule="evenodd" clip-rule="evenodd" d="M42.4497 33.8574C43.9257 27.9527 47.6168 25 53.5215 25C62.3789 25 63.486 31.643 67.9147 32.7502C70.8674 33.4886 73.4506 32.3814 75.665 29.4287C74.189 35.3334 70.4979 38.2861 64.5932 38.2861C55.7358 38.2861 54.6287 31.643 50.2 30.5359C47.2473 29.7975 44.6641 30.9047 42.4497 33.8574ZM31.378 47.1435C32.854 41.2388 36.545 38.2861 42.4497 38.2861C51.3071 38.2861 52.4143 44.9291 56.843 46.0363C59.7957 46.7747 62.3789 45.6675 64.5932 42.7148C63.1172 48.6195 59.4262 51.5722 53.5215 51.5722C44.6641 51.5722 43.5569 44.9291 39.1282 43.822C36.1755 43.0836 33.5923 44.1908 31.378 47.1435Z" fill="url(#paint0_linear)"/>
<path d="M79.5395 49.2466L90.5 38.2861L79.5395 27.3256" stroke="#718096" stroke-width="3"/>
<path d="M23.9605 49.3188L13 38.3583L23.9605 27.3979" stroke="#718096" stroke-width="3"/>
<defs>
<linearGradient id="paint0_linear" x1="31.378" y1="1.3805" x2="75.665" y2="75.1917" gradientUnits="userSpaceOnUse">
<stop stop-color="#2383AE"/>
<stop offset="1" stop-color="#6DD7B9"/>
</linearGradient>
</defs>
</svg>
